<svg xmlns="http://www.w3.org/2000/svg" width="32px" height="32px"  viewBox="0 0 24 24"><g>
                <path d="M17.44,9.33h-1.1V6.4c0-2.39-1.95-4.34-4.34-4.34S7.66,4.01,7.66,6.4v2.93h-1.1
                    c-1.38,0-2.5,1.12-2.5,2.5v7.61c0,1.37,1.12,2.5,2.5,2.5h10.88c1.38,0,2.5-1.13,2.5-2.5v-7.61C19.94,10.45,18.82,9.33,17.44,9.33z
                    M8.66,6.4c0-1.84,1.5-3.34,3.34-3.34s3.34,1.5,3.34,3.34v2.93H8.66V6.4z M18.94,19.44c0,0.82-0.68,1.5-1.5,1.5H6.56
                    c-0.82,0-1.5-0.68-1.5-1.5v-7.61c0-0.83,0.68-1.5,1.5-1.5h10.88c0.82,0,1.5,0.67,1.5,1.5V19.44z"/>
                <path d="M13,14.95c0,0.37-0.2,0.69-0.5,0.86v1.5c0,0.28-0.23,0.49-0.5,0.5s-0.5-0.24-0.5-0.5v-1.5
                    c-0.3-0.17-0.5-0.49-0.5-0.86c0-0.55,0.45-1,1-1S13,14.4,13,14.95z"/>
            </g></svg>